<svg id="icon-flickr_logo" data-name="icon-flickr logo" xmlns="http://www.w3.org/2000/svg" viewBox="0 0 72 50"><defs><style>.cls-1{fill:#fff;}</style></defs><title>logo</title><path class="cls-1" d="M3,23.64H0V20H3.1V19c0-4.48,2.11-6,6.27-6a13.83,13.83,0,0,1,2.66.29l-.32,3.58a4.84,4.84,0,0,0-1.65-.23c-1.33,0-1.84.93-1.84,2.4v1H12v3.64H8.22V35H3ZM14,13.32h5.21V35H14Zm7.81.35H27v3.82h-5.2Zm0,6.31H27V35h-5.2Zm19.33,4.28A5.71,5.71,0,0,0,38,23.42a3.88,3.88,0,0,0-4,4.16,4.06,4.06,0,0,0,4.28,4,7,7,0,0,0,3.24-.72l.12,3.88a14.16,14.16,0,0,1-4.26.67c-5,0-8.76-2.9-8.76-7.87s3.79-7.9,8.76-7.9a9.31,9.31,0,0,1,4.14.84l-.37,3.81ZM43.8,13.32H49v13h.06L53.4,20h5.7l-5.24,6.91L59.53,35h-6.3l-4.17-7.47H49V35H43.8V13.32Zm28,10.79A6.16,6.16,0,0,0,70,23.94c-2.43,0-3.79,1.77-3.79,4.72V35H61V20h4.74v2.77h.06c.89-1.91,2.2-3.12,4.45-3.12a10.74,10.74,0,0,1,1.77.17l-.26,4.34Z"/></svg>