<?xml version="1.0" encoding="utf-8"?>
<!-- Generator: Adobe Illustrator 24.0.0, SVG Export Plug-In . SVG Version: 6.00 Build 0)  -->
<svg version="1.1" id="Layer_1" xmlns="http://www.w3.org/2000/svg" xmlns:xlink="http://www.w3.org/1999/xlink" x="0px" y="0px"
	 viewBox="0 0 100 100" style="enable-background:new 0 0 100 100;" xml:space="preserve">
<style type="text/css">
	.st0{fill:#474747;}
</style>
<title>search-btn</title>
<path class="st0" d="M94.2,81.8L69,56.6c10.3-16.3,5.3-37.8-10.9-48.1S20.2,3.2,10,19.5S4.6,57.3,20.9,67.6
	c11.2,7.1,25.5,7.1,36.8,0.2L83,93c1.4,1.4,3.7,1.4,5.2,0c0,0,0,0,0,0l6-6C95.6,85.6,95.7,83.3,94.2,81.8
	C94.2,81.8,94.2,81.8,94.2,81.8z M39.5,63.8c-14.2,0-25.8-11.5-25.8-25.8c0-14.2,11.5-25.8,25.8-25.8S65.3,23.8,65.3,38
	c0,9.8-5.5,18.7-14.2,23.1C47.5,62.9,43.6,63.8,39.5,63.8z"/>
</svg>
